<svg version="1.1" viewBox="0.0 0.0 440.9186351706037 500.8897637795276" fill="none" stroke="none" stroke-linecap="square" stroke-miterlimit="10" xmlns:xlink="http://www.w3.org/1999/xlink" xmlns="http://www.w3.org/2000/svg"><clipPath id="p.0"><path d="m0 0l440.91864 0l0 500.88977l-440.91864 0l0 -500.88977z" clip-rule="nonzero"/></clipPath><g clip-path="url(#p.0)"><path fill="#000000" fill-opacity="0.0" d="m0 0l440.91864 0l0 500.88977l-440.91864 0z" fill-rule="evenodd"/><g filter="url(#shadowFilter-p.1)"><use xlink:href="#p.1" transform="matrix(1.0 0.0 0.0 1.0 0.0 2.0)"/></g><defs><filter id="shadowFilter-p.1" filterUnits="userSpaceOnUse"><feGaussianBlur in="SourceAlpha" stdDeviation="22.0" result="blur"/><feComponentTransfer in="blur" color-interpolation-filters="sRGB"><feFuncR type="linear" slope="0" intercept="0.06666667"/><feFuncG type="linear" slope="0" intercept="0.33333334"/><feFuncB type="linear" slope="0" intercept="0.8"/><feFuncA type="linear" slope="0.82" intercept="0"/></feComponentTransfer></filter></defs><g id="p.1"><path fill="#3c78d8" d="m143.74985 141.57991l153.41733 0l0 153.41734l-153.41733 0z" fill-rule="evenodd"/></g><g filter="url(#shadowFilter-p.2)"><use xlink:href="#p.2" transform="matrix(1.0 0.0 0.0 1.0 0.0 2.0)"/></g><defs><filter id="shadowFilter-p.2" filterUnits="userSpaceOnUse"><feGaussianBlur in="SourceAlpha" stdDeviation="22.0" result="blur"/><feComponentTransfer in="blur" color-interpolation-filters="sRGB"><feFuncR type="linear" slope="0" intercept="0.06666667"/><feFuncG type="linear" slope="0" intercept="0.33333334"/><feFuncB type="linear" slope="0" intercept="0.8"/><feFuncA type="linear" slope="0.82" intercept="0"/></feComponentTransfer></filter></defs><g id="p.2"><path fill="#3c78d8" d="m146.12152 119.585304l74.3307 -100.91339l74.3307 100.91339z" fill-rule="evenodd"/></g><g filter="url(#shadowFilter-p.3)"><use xlink:href="#p.3" transform="matrix(1.0 0.0 0.0 1.0 0.0 2.0)"/></g><defs><filter id="shadowFilter-p.3" filterUnits="userSpaceOnUse"><feGaussianBlur in="SourceAlpha" stdDeviation="22.0" result="blur"/><feComponentTransfer in="blur" color-interpolation-filters="sRGB"><feFuncR type="linear" slope="0" intercept="0.06666667"/><feFuncG type="linear" slope="0" intercept="0.33333334"/><feFuncB type="linear" slope="0" intercept="0.8"/><feFuncA type="linear" slope="0.82" intercept="0"/></feComponentTransfer></filter></defs><g id="p.3"><path fill="#3c78d8" d="m397.51627 313.91675l-78.80316 -16.811066l0 -157.62196l78.80316 -16.811073z" fill-rule="evenodd"/></g><g filter="url(#shadowFilter-p.4)"><use xlink:href="#p.4" transform="matrix(1.0 0.0 0.0 1.0 0.0 2.0)"/></g><defs><filter id="shadowFilter-p.4" filterUnits="userSpaceOnUse"><feGaussianBlur in="SourceAlpha" stdDeviation="22.0" result="blur"/><feComponentTransfer in="blur" color-interpolation-filters="sRGB"><feFuncR type="linear" slope="0" intercept="0.06666667"/><feFuncG type="linear" slope="0" intercept="0.33333334"/><feFuncB type="linear" slope="0" intercept="0.8"/><feFuncA type="linear" slope="0.82" intercept="0"/></feComponentTransfer></filter></defs><g id="p.4"><path fill="#3c78d8" d="m43.402393 122.66503l78.80315 16.811073l0 157.62195l-78.80315 16.811066z" fill-rule="evenodd"/></g><g filter="url(#shadowFilter-p.5)"><use xlink:href="#p.5" transform="matrix(1.0 0.0 0.0 1.0 0.0 2.0)"/></g><defs><filter id="shadowFilter-p.5" filterUnits="userSpaceOnUse"><feGaussianBlur in="SourceAlpha" stdDeviation="22.0" result="blur"/><feComponentTransfer in="blur" color-interpolation-filters="sRGB"><feFuncR type="linear" slope="0" intercept="0.06666667"/><feFuncG type="linear" slope="0" intercept="0.33333334"/><feFuncB type="linear" slope="0" intercept="0.8"/><feFuncA type="linear" slope="0.82" intercept="0"/></feComponentTransfer></filter></defs><g id="p.5"><path fill="#3c78d8" d="m251.3417 30.416441l62.586365 86.957466l65.426025 -12.56028z" fill-rule="evenodd"/></g><g filter="url(#shadowFilter-p.6)"><use xlink:href="#p.6" transform="matrix(1.0 0.0 0.0 1.0 0.0 2.0)"/></g><defs><filter id="shadowFilter-p.6" filterUnits="userSpaceOnUse"><feGaussianBlur in="SourceAlpha" stdDeviation="22.0" result="blur"/><feComponentTransfer in="blur" color-interpolation-filters="sRGB"><feFuncR type="linear" slope="0" intercept="0.06666667"/><feFuncG type="linear" slope="0" intercept="0.33333334"/><feFuncB type="linear" slope="0" intercept="0.8"/><feFuncA type="linear" slope="0.82" intercept="0"/></feComponentTransfer></filter></defs><g id="p.6"><path fill="#3c78d8" d="m188.44038 32.61261l-62.586357 86.957466l-65.42601 -12.560272z" fill-rule="evenodd"/></g><g filter="url(#shadowFilter-p.7)"><use xlink:href="#p.7" transform="matrix(1.0 0.0 0.0 1.0 0.0 2.0)"/></g><defs><filter id="shadowFilter-p.7" filterUnits="userSpaceOnUse"><feGaussianBlur in="SourceAlpha" stdDeviation="22.0" result="blur"/><feComponentTransfer in="blur" color-interpolation-filters="sRGB"><feFuncR type="linear" slope="0" intercept="0.06666667"/><feFuncG type="linear" slope="0" intercept="0.33333334"/><feFuncB type="linear" slope="0" intercept="0.8"/><feFuncA type="linear" slope="0.82" intercept="0"/></feComponentTransfer></filter></defs><g id="p.7"><path fill="#3c78d8" d="m294.22818 319.1942l-74.33069 100.91339l-74.33072 -100.91339z" fill-rule="evenodd"/></g><g filter="url(#shadowFilter-p.8)"><use xlink:href="#p.8" transform="matrix(1.0 0.0 0.0 1.0 0.0 2.0)"/></g><defs><filter id="shadowFilter-p.8" filterUnits="userSpaceOnUse"><feGaussianBlur in="SourceAlpha" stdDeviation="22.0" result="blur"/><feComponentTransfer in="blur" color-interpolation-filters="sRGB"><feFuncR type="linear" slope="0" intercept="0.06666667"/><feFuncG type="linear" slope="0" intercept="0.33333334"/><feFuncB type="linear" slope="0" intercept="0.8"/><feFuncA type="linear" slope="0.82" intercept="0"/></feComponentTransfer></filter></defs><g id="p.8"><path fill="#3c78d8" d="m189.00801 408.3631l-62.586365 -86.95749l-65.42601 12.560272z" fill-rule="evenodd"/></g><g filter="url(#shadowFilter-p.9)"><use xlink:href="#p.9" transform="matrix(1.0 0.0 0.0 1.0 0.0 2.0)"/></g><defs><filter id="shadowFilter-p.9" filterUnits="userSpaceOnUse"><feGaussianBlur in="SourceAlpha" stdDeviation="22.0" result="blur"/><feComponentTransfer in="blur" color-interpolation-filters="sRGB"><feFuncR type="linear" slope="0" intercept="0.06666667"/><feFuncG type="linear" slope="0" intercept="0.33333334"/><feFuncB type="linear" slope="0" intercept="0.8"/><feFuncA type="linear" slope="0.82" intercept="0"/></feComponentTransfer></filter></defs><g id="p.9"><path fill="#3c78d8" d="m251.90933 406.16693l62.586365 -86.95749l65.425995 12.560272z" fill-rule="evenodd"/></g><path fill="#000000" fill-opacity="0.0" d="m0.002624672 420.1076l440.9134 0l0 92.09448l-440.9134 0z" fill-rule="evenodd"/><path fill="#ffffff" d="m48.88022 470.91074l8.40625 2.671875q-1.921875 7.03125 -6.421875 10.453125q-4.5 3.40625 -11.421875 3.40625q-8.546875 0 -14.0625 -5.84375q-5.5 -5.84375 -5.5 -15.984375q0 -10.71875 5.53125 -16.65625q5.546875 -5.9375 14.5625 -5.9375q7.890625 0 12.8125 4.65625q2.921875 2.765625 4.390625 7.921875l-8.59375 2.046875q-0.75 -3.34375 -3.171875 -5.265625q-2.421875 -1.9375 -5.875 -1.9375q-4.78125 0 -7.75 3.421875q-2.96875 3.421875 -2.96875 11.109375q0 8.140625 2.921875 11.59375q2.9375 3.453125 7.625 3.453125q3.453125 0 5.9375 -2.1875q2.5 -2.203125 3.578125 -6.921875zm23.673828 15.796875l-8.234375 0l0 -31.109375l7.65625 0l0 4.421875q1.953125 -3.140625 3.515625 -4.125q1.578125 -1.0 3.5625 -1.0q2.8125 0 5.421875 1.546875l-2.546875 7.171875q-2.078125 -1.34375 -3.859375 -1.34375q-1.734375 0 -2.9375 0.953125q-1.203125 0.953125 -1.890625 3.453125q-0.6875 2.484375 -0.6875 10.421875l0 9.609375zm11.568359 -31.109375l8.765625 0l7.4375 22.078125l7.265625 -22.078125l8.53125 0l-10.984375 29.9375l-1.96875 5.421875q-1.078125 2.71875 -2.0625 4.15625q-0.984375 1.4375 -2.265625 2.328125q-1.265625 0.890625 -3.125 1.390625q-1.859375 0.5 -4.203125 0.5q-2.375 0 -4.65625 -0.5l-0.734375 -6.4375q1.9375 0.375 3.484375 0.375q2.875 0 4.25 -1.6875q1.375 -1.671875 2.109375 -4.28125l-11.84375 -31.203125zm37.041016 0l7.671875 0l0 4.5625q1.5 -2.34375 4.046875 -3.796875q2.546875 -1.46875 5.65625 -1.46875q5.40625 0 9.1875 4.25q3.78125 4.234375 3.78125 11.828125q0 7.796875 -3.8125 12.125q-3.796875 4.3125 -9.21875 4.3125q-2.578125 0 -4.671875 -1.015625q-2.09375 -1.03125 -4.40625 -3.53125l0 15.6875l-8.234375 0l0 -42.953125zm8.140625 15.03125q0 5.234375 2.078125 7.75q2.078125 2.5 5.0625 2.5q2.875 0 4.78125 -2.296875q1.90625 -2.3125 1.90625 -7.546875q0 -4.890625 -1.96875 -7.265625q-1.953125 -2.375 -4.859375 -2.375q-3.015625 0 -5.015625 2.328125q-1.984375 2.328125 -1.984375 6.90625zm43.009766 -15.03125l0 6.5625l-5.625 0l0 12.53125q0 3.8125 0.15625 4.453125q0.15625 0.625 0.734375 1.03125q0.578125 0.40625 1.390625 0.40625q1.140625 0 3.3125 -0.796875l0.703125 6.390625q-2.875 1.234375 -6.5 1.234375q-2.234375 0 -4.03125 -0.75q-1.78125 -0.75 -2.609375 -1.9375q-0.828125 -1.1875 -1.15625 -3.203125q-0.265625 -1.4375 -0.265625 -5.796875l0 -13.5625l-3.78125 0l0 -6.5625l3.78125 0l0 -6.1875l8.265625 -4.796875l0 10.984375l5.625 0zm3.8085938 15.109375q0 -4.09375 2.015625 -7.9375q2.03125 -3.84375 5.734375 -5.859375q3.703125 -2.015625 8.265625 -2.015625q7.0625 0 11.578125 4.59375q4.515625 4.578125 4.515625 11.578125q0 7.0625 -4.5625 11.703125q-4.546875 4.640625 -11.46875 4.640625q-4.28125 0 -8.15625 -1.9375q-3.875 -1.9375 -5.90625 -5.671875q-2.015625 -3.734375 -2.015625 -9.09375zm8.4375 0.4375q0 4.640625 2.1875 7.109375q2.203125 2.453125 5.421875 2.453125q3.234375 0 5.40625 -2.453125q2.1875 -2.46875 2.1875 -7.15625q0 -4.578125 -2.1875 -7.03125q-2.171875 -2.46875 -5.40625 -2.46875q-3.21875 0 -5.421875 2.46875q-2.1875 2.453125 -2.1875 7.078125zm39.83789 15.5625l0 -35.6875l-12.734375 0l0 -7.265625l34.125 0l0 7.265625l-12.71875 0l0 35.6875l-8.671875 0zm31.496094 0l-8.234375 0l0 -31.109375l7.65625 0l0 4.421875q1.953125 -3.140625 3.515625 -4.125q1.578125 -1.0 3.5625 -1.0q2.8125 0 5.421875 1.546875l-2.546875 7.171875q-2.078125 -1.34375 -3.859375 -1.34375q-1.734375 0 -2.9375 0.953125q-1.203125 0.953125 -1.890625 3.453125q-0.6875 2.484375 -0.6875 10.421875l0 9.609375zm21.615234 -21.625l-7.46875 -1.34375q1.265625 -4.515625 4.34375 -6.671875q3.078125 -2.171875 9.140625 -2.171875q5.5 0 8.1875 1.3125q2.703125 1.296875 3.796875 3.296875q1.109375 2.0 1.109375 7.375l-0.09375 9.609375q0 4.09375 0.390625 6.046875q0.40625 1.9375 1.484375 4.171875l-8.140625 0q-0.328125 -0.828125 -0.796875 -2.4375q-0.203125 -0.734375 -0.28125 -0.96875q-2.109375 2.0625 -4.515625 3.09375q-2.40625 1.015625 -5.125 1.015625q-4.8125 0 -7.578125 -2.609375q-2.765625 -2.609375 -2.765625 -6.59375q0 -2.640625 1.25 -4.703125q1.265625 -2.0625 3.53125 -3.15625q2.28125 -1.109375 6.5625 -1.921875q5.765625 -1.078125 7.984375 -2.015625l0 -0.828125q0 -2.375 -1.171875 -3.375q-1.171875 -1.015625 -4.421875 -1.015625q-2.1875 0 -3.421875 0.859375q-1.234375 0.859375 -2.0 3.03125zm11.015625 6.6875q-1.578125 0.515625 -5.015625 1.25q-3.421875 0.734375 -4.46875 1.4375q-1.609375 1.140625 -1.609375 2.90625q0 1.71875 1.28125 2.984375q1.296875 1.265625 3.28125 1.265625q2.234375 0 4.25 -1.46875q1.5 -1.109375 1.96875 -2.71875q0.3125 -1.0625 0.3125 -4.015625l0 -1.640625zm43.33789 -6.984375l-8.109375 1.46875q-0.421875 -2.421875 -1.875 -3.65625q-1.4375 -1.234375 -3.75 -1.234375q-3.078125 0 -4.921875 2.125q-1.828125 2.125 -1.828125 7.109375q0 5.53125 1.859375 7.828125q1.859375 2.28125 5.0 2.28125q2.34375 0 3.828125 -1.328125q1.5 -1.34375 2.125 -4.59375l8.078125 1.375q-1.25 5.5625 -4.828125 8.40625q-3.578125 2.84375 -9.578125 2.84375q-6.828125 0 -10.890625 -4.296875q-4.0625 -4.3125 -4.0625 -11.9375q0 -7.703125 4.078125 -11.984375q4.078125 -4.296875 11.015625 -4.296875q5.6875 0 9.03125 2.453125q3.359375 2.4375 4.828125 7.4375zm5.9472656 21.921875l0 -42.953125l8.234375 0l0 22.796875l9.640625 -10.953125l10.125 0l-10.625 11.359375l11.390625 19.75l-8.875 0l-7.828125 -13.96875l-3.828125 4.0l0 9.96875l-8.234375 0zm51.68164 -9.90625l8.203125 1.375q-1.578125 4.515625 -5.0 6.875q-3.40625 2.359375 -8.53125 2.359375q-8.125 0 -12.015625 -5.296875q-3.078125 -4.25 -3.078125 -10.734375q0 -7.734375 4.03125 -12.109375q4.046875 -4.375 10.234375 -4.375q6.9375 0 10.953125 4.59375q4.015625 4.578125 3.84375 14.03125l-20.625 0q0.09375 3.671875 1.984375 5.703125q1.90625 2.03125 4.75 2.03125q1.9375 0 3.25 -1.046875q1.328125 -1.0625 2.0 -3.40625zm0.46875 -8.3125q-0.09375 -3.578125 -1.859375 -5.4375q-1.75 -1.859375 -4.265625 -1.859375q-2.703125 0 -4.453125 1.953125q-1.765625 1.96875 -1.734375 5.34375l12.3125 0zm22.759766 18.21875l-8.234375 0l0 -31.109375l7.65625 0l0 4.421875q1.953125 -3.140625 3.515625 -4.125q1.578125 -1.0 3.5625 -1.0q2.8125 0 5.421875 1.546875l-2.546875 7.171875q-2.078125 -1.34375 -3.859375 -1.34375q-1.734375 0 -2.9375 0.953125q-1.203125 0.953125 -1.890625 3.453125q-0.6875 2.484375 -0.6875 10.421875l0 9.609375z" fill-rule="nonzero"/></g></svg>