<svg version="1.1" viewBox="0.0 0.0 294.3307086614173 334.36482939632543" fill="none" stroke="none" stroke-linecap="square" stroke-miterlimit="10" xmlns:xlink="http://www.w3.org/1999/xlink" xmlns="http://www.w3.org/2000/svg"><clipPath id="p.0"><path d="m0 0l294.33072 0l0 334.36484l-294.33072 0l0 -334.36484z" clip-rule="nonzero"/></clipPath><g clip-path="url(#p.0)"><path fill="#000000" fill-opacity="0.0" d="m0 0l294.33072 0l0 334.36484l-294.33072 0z" fill-rule="evenodd"/><path fill="#2f74c0" d="m83.29921 102.014435l127.33859 0l0 127.33858l-127.33859 0z" fill-rule="evenodd"/><path fill="#2f74c0" d="m85.267715 83.74803l61.70079 -83.74803l61.70079 83.74803z" fill-rule="evenodd"/><path fill="#2f74c0" d="m293.937 245.05511l-65.41733 -13.955475l0 -130.8292l65.41733 -13.955475z" fill-rule="evenodd"/><path fill="#2f74c0" d="m0 86.314964l65.41732 13.955475l0 130.8292l-65.41732 13.955475z" fill-rule="evenodd"/><path fill="#2f74c0" d="m172.60104 9.748032l51.94751 72.17585l54.304474 -10.425194z" fill-rule="evenodd"/><path fill="#2f74c0" d="m120.3926 11.570867l-51.947502 72.17585l-54.304466 -10.425194z" fill-rule="evenodd"/><path fill="#2f74c0" d="m208.19707 249.4462l-61.70079 83.74802l-61.70079 -83.74802z" fill-rule="evenodd"/><path fill="#2f74c0" d="m120.86373 323.4462l-51.94751 -72.17586l-54.30446 10.425186z" fill-rule="evenodd"/><path fill="#2f74c0" d="m173.07217 321.62335l51.94751 -72.17584l54.304474 10.425201z" fill-rule="evenodd"/></g></svg>